<?xml version="1.0" encoding="utf-8"?>
<!-- Generator: Adobe Illustrator 26.5.0, SVG Export Plug-In . SVG Version: 6.00 Build 0)  -->
<svg version="1.1" id="Layer_1" xmlns="http://www.w3.org/2000/svg" xmlns:xlink="http://www.w3.org/1999/xlink" x="0px" y="0px"
	 viewBox="0 0 150 75" style="enable-background:new 0 0 150 75;" xml:space="preserve">
<style type="text/css">
	.st0{fill:#FFFFFF;}
</style>
<g>
	<path d="M77.29,32.69c0.04-0.16,0.07-0.32,0.11-0.48c0.34,0.58,0.46,1.24,0.72,1.84c0.27,0.61,0.51,1.22,0.77,1.84
		c0.19-0.08,0.11-0.19,0.09-0.29c-0.14-0.81-0.3-1.62-0.4-2.43c-0.1-0.78-0.12-1.57-0.18-2.35c-0.01-0.1,0.02-0.2,0.07-0.3
		c0.2,1.25,0.32,2.5,0.57,3.76c0.32-0.18,0.6-0.37,0.89-0.52c0.4-0.21,0.84-0.27,1.29-0.33c1.27-0.17,2.4,0.31,3.56,0.7
		c0.27,0.09,0.52,0.21,0.72,0.41c0.04,0.05,0.07,0.11,0.11,0.18c-0.19,0.09-0.33,0.01-0.47-0.04c-0.61-0.2-1.22-0.41-1.82-0.61
		c-1.25-0.42-2.47-0.37-3.66,0.21c-0.17,0.08-0.36,0.14-0.57,0.23c0.07,0.33,0.14,0.67,0.23,1.06c0.35-0.2,0.65-0.4,0.97-0.57
		c0.77-0.42,1.58-0.66,2.46-0.68c1.04-0.02,1.91,0.37,2.7,1c0.43,0.34,0.78,0.75,1.12,1.29c-0.02-0.33-0.04-0.58-0.06-0.87
		c0.23,0.25,0.18,0.56,0.33,0.83c0.85-0.5,1.78-0.53,2.75-0.4c0.28-0.47,0.66-0.85,1.08-1.2c0.63-0.52,1.36-0.77,2.15-0.89
		c1.03-0.15,2.02,0.03,3.01,0.31c0.45,0.13,0.9,0.28,1.34,0.42c-0.04,0.15-0.08,0.27-0.12,0.43c0.24,0,0.43,0,0.63,0
		c0.2-1.36,0.16-2.72,0.09-4.11c-0.17,0.26-0.32,0.54-0.52,0.78c-0.21,0.25-0.46,0.45-0.73,0.66c0.37-1.99,0.45-4,0.57-6
		c0.21,1.79,0.18,3.56-0.16,5.42c0.34-0.48,0.63-0.89,0.93-1.31c0.3,1.54,0.41,3.06,0.12,4.56c0.64,0.13,1.23,0.24,1.81,0.37
		c0.15,0.03,0.3,0.09,0.44,0.15c0.13,0.06,0.23,0.15,0.14,0.3c0.65,0.25,0.95,0.71,0.97,1.44c0.02,0.7-0.08,1.38-0.29,2.04
		c-0.4,1.32-1.01,2.54-1.74,3.7c-0.37,0.59-0.89,1.02-1.6,1.18c-0.01,0-0.02,0.01-0.03,0.01c-0.55,0.13-0.76,0.04-1.07-0.46
		c-0.15,0.2-0.23,0.43-0.29,0.65c-0.3,1.13-0.62,2.26-0.87,3.41c-0.2,0.91-0.36,1.83-0.48,2.75c-0.08,0.6-0.03,1.21-0.05,1.82
		c0,0.15-0.04,0.3-0.09,0.45c-0.19-0.3-0.15-0.64-0.18-0.95c-0.13-1.14,0.07-2.24,0.32-3.35c0.24-1.09,0.51-2.17,0.9-3.22
		c0.01-0.02,0-0.05-0.01-0.11c-0.06,0.07-0.12,0.12-0.16,0.18c-0.63,0.88-1.4,1.62-2.27,2.24c-1.19,0.85-2.46,1.59-3.87,2.06
		c-0.47,0.15-0.96,0.24-1.44,0.35c-0.06,0.01-0.13,0.03-0.17,0.01c-0.51-0.33-1.1-0.48-1.65-0.73c-0.44-0.2-0.88-0.39-1.37-0.6
		c0.3,0.85,0.12,1.65-0.06,2.51c-0.19-0.2-0.12-0.4-0.12-0.58c0.01-0.57,0.01-1.14,0.05-1.7c0.01-0.26-0.09-0.4-0.3-0.52
		c-0.64-0.35-1.23-0.76-1.78-1.25c-1.3-1.15-2.13-2.56-2.42-4.28c-0.04-0.25-0.06-0.5-0.1-0.76c-0.02-0.15-0.06-0.27-0.22-0.34
		c-0.42-0.19-0.68-0.54-0.9-0.92c-0.18-0.32-0.33-0.64-0.53-1.04c-0.03,0.17-0.05,0.29-0.08,0.41c-0.15,0.7-0.29,1.4-0.44,2.09
		c-0.03,0.12-0.09,0.24-0.14,0.36c-0.03-0.01-0.05-0.01-0.08-0.02c0.04-0.33,0.05-0.67,0.13-0.99c0.14-0.64,0.31-1.27,0.49-1.9
		c0.04-0.15,0.04-0.27,0-0.42c-0.15-0.47-0.31-0.95-0.4-1.43c-0.07-0.36-0.05-0.75-0.03-1.12c0.01-0.17,0.11-0.35,0.2-0.5
		c0.15-0.24,0.4-0.24,0.67-0.26c-0.05-0.02-0.09-0.04-0.17-0.08c0.09-0.13,0.05-0.25-0.02-0.39c-0.34-0.64-0.67-1.29-0.98-1.95
		c-0.12-0.26-0.16-0.56-0.24-0.83C77.39,32.91,77.33,32.8,77.29,32.69C77.28,32.68,77.29,32.69,77.29,32.69z M83.99,47.9
		c0.02-0.01,0.04-0.03,0.05-0.04c-0.05-0.1-0.1-0.21-0.15-0.31c-0.21-0.39-0.28-0.8-0.24-1.23c0.04-0.47,0.38-0.71,0.83-0.59
		c0.13,0.03,0.26,0.08,0.39,0.09c0.17,0.01,0.27,0.09,0.35,0.22c0.2,0.33,0.52,0.51,0.86,0.63c0.34,0.13,0.68,0.25,1.03,0.34
		c0.38,0.11,0.77,0.22,1.17,0.26c1.14,0.12,2.13-0.23,2.96-1.01c0.36-0.34,0.7-0.71,1.04-1.07c0.44-0.46,0.98-0.58,1.58-0.46
		c0.24,0.04,0.3,0.09,0.29,0.33c-0.01,0.3-0.03,0.6-0.09,0.9c-0.06,0.35-0.17,0.69-0.25,1.04c1.24-0.87,2.05-2.08,2.82-3.36
		c0.11,0.13,0.21,0.25,0.31,0.37c0.11,0.14,0.25,0.2,0.42,0.17c0.45-0.08,0.88-0.2,1.2-0.55c0.23-0.26,0.48-0.53,0.64-0.83
		c0.41-0.77,0.79-1.55,1.14-2.35c0.4-0.92,0.67-1.87,0.62-2.89c-0.01-0.26-0.08-0.53-0.19-0.77c-0.15-0.34-0.49-0.48-0.85-0.35
		c-0.22,0.08-0.46,0.19-0.62,0.36c-0.28,0.28-0.5,0.62-0.74,0.94c-0.1,0.14-0.18,0.3-0.26,0.45c-0.02-0.01-0.04-0.02-0.06-0.03
		c0.05-0.17,0.1-0.33,0.15-0.5c-0.38,0.2-0.69,0.45-0.77,0.88c-0.03,0.13-0.03,0.27-0.23,0.21c0.22-1.06,0.14-2.13,0.23-3.21
		c-0.18-0.03-0.34-0.06-0.51-0.09c-0.07,0.81-0.38,1.52-0.72,2.21c-0.4,0.83-1.02,1.47-1.81,1.93c-0.49,0.29-1.01,0.56-1.59,0.55
		c-1.13-0.03-2.08-0.44-2.69-1.44c-0.19-0.31-0.35-0.64-0.46-0.98c-0.15-0.43-0.24-0.88-0.35-1.31c-0.89,0.08-1.81-0.03-2.67,0.42
		c0.16,1.07-0.18,2-0.77,2.86c0.05-0.63,0.38-1.19,0.46-1.83c-0.04,0.02-0.07,0.03-0.08,0.05c-0.52,0.89-1.31,1.48-2.18,1.99
		c-0.43,0.25-0.9,0.42-1.4,0.46c-0.65,0.05-1.21-0.21-1.7-0.61c-0.31-0.25-0.58-0.53-0.87-0.81c-0.18,0.07-0.19,0.2-0.16,0.37
		c0.12,0.83,0.22,1.65,0.33,2.48c0.07,0.52,0.12,1.04,0.23,1.54c0.42,1.89,1.52,3.32,3.1,4.41C83.85,47.83,83.92,47.86,83.99,47.9z
		 M90.9,35.14c-0.51,0.33-0.87,0.74-1.25,1.13c-0.05,0.05-0.07,0.19-0.04,0.26c0.24,0.58,0.48,1.16,0.76,1.73
		c0.24,0.48,0.59,0.89,1.08,1.15c0.56,0.31,1.15,0.53,1.8,0.4c0.8-0.17,1.51-0.54,2.08-1.12c1.01-1.02,1.44-2.28,1.52-3.67
		c-0.53-0.14-1.03-0.29-1.53-0.41c-0.77-0.19-1.55-0.28-2.35-0.19c0.49,0.12,1.01,0.21,1.34,0.64c0.34,0.44,0.35,0.95,0.22,1.47
		c-0.12-0.23-0.2-0.46-0.25-0.7c-0.09-0.4-0.33-0.66-0.7-0.82c-0.47-0.21-0.96-0.25-1.46-0.17c-0.61,0.1-1.05,0.41-1.2,1.05
		c-0.01,0.06-0.05,0.12-0.08,0.18c-0.06-0.06-0.08-0.11-0.07-0.16C90.81,35.66,90.85,35.42,90.9,35.14z M86.52,37.04
		c-0.06-0.04-0.13-0.07-0.16-0.12c-0.41-0.7-0.98-1.25-1.66-1.68c-0.05-0.03-0.11-0.04-0.23-0.07c0.29,0.33,0.66,0.52,0.71,1.04
		c-0.15-0.13-0.25-0.21-0.34-0.3c-0.35-0.34-0.77-0.59-1.23-0.74c-0.3-0.1-0.59-0.1-0.89,0c-0.52,0.18-0.9,0.51-1.14,1
		c-0.07,0.14-0.1,0.32-0.28,0.4c-0.11-0.97,0.38-1.52,1.57-1.89c-1.33,0-2.42,0.53-3.49,1.2c0.15,0.62,0.3,1.21,0.45,1.81
		c0.01,0.05,0.04,0.09,0.06,0.13c0.37,0.56,0.75,1.1,1.25,1.55c0.77,0.69,1.63,0.94,2.6,0.45C84.96,39.2,85.99,38.38,86.52,37.04z
		 M80.05,41.75c0.03-0.01,0.05-0.02,0.08-0.03c-0.17-1.16-0.34-2.31-0.52-3.47c-0.23-0.04-0.34-0.29-0.63-0.22
		c-0.04,0.22-0.08,0.44-0.12,0.68c-0.14-0.23-0.2-0.72-0.1-0.88c0.05-0.08,0.16-0.14,0.25-0.17c0.21-0.07,0.32,0.11,0.47,0.24
		c-0.03-0.24-0.44-1.18-0.61-1.39c-0.48,0.13-0.63,0.3-0.65,0.77c-0.01,0.25-0.02,0.52,0.03,0.76c0.21,1.02,0.55,2.01,1.08,2.91
		C79.52,41.26,79.76,41.53,80.05,41.75z M98.55,37.41c0.35-0.59,0.74-1.12,1.41-1.38c-0.68-0.15-1.36-0.29-2.06-0.44
		c-0.06,0.23-0.15,0.43-0.16,0.62c-0.02,0.54-0.01,1.07-0.01,1.65C98,37.66,98.14,37.3,98.55,37.41z M79.1,36.11
		c-0.08,0.31-0.08,0.31,0.11,0.48C79.17,36.41,79.13,36.26,79.1,36.11z M80.02,38.56C80,38.73,80,38.82,80.18,38.79
		C80.13,38.72,80.09,38.67,80.02,38.56z"/>
	<path d="M71.12,58.72c-0.16-0.2-0.06-0.38,0.05-0.58c0.26-0.46,0.65-0.78,1.08-1.05c0.76-0.48,1.59-0.78,2.5-0.76
		c0.39,0.01,0.79,0.11,1.16,0.24c0.78,0.27,1.44,0.73,2,1.35c0.28,0.31,0.48,0.67,0.61,1.06c0.25,0.78,0.38,1.58,0.36,2.39
		c-0.03,1.05-0.29,2.04-0.86,2.92c-0.36,0.56-0.88,0.94-1.51,1.13c-1.65,0.51-3.18,0.25-4.56-0.81c-0.83-0.64-1.26-1.52-1.51-2.5
		c-0.29-1.15-0.13-2.23,0.56-3.22C71.05,58.84,71.08,58.79,71.12,58.72z M74.99,64.44c0.23,0,0.46,0.02,0.69,0
		c0.36-0.04,0.72-0.09,1.02-0.33c0.36-0.28,0.66-0.6,0.84-1.03c0.54-1.25,0.63-2.52,0.14-3.81c-0.15-0.41-0.38-0.76-0.73-1.02
		c-0.24-0.18-0.51-0.33-0.78-0.45c-0.48-0.22-0.98-0.36-1.51-0.34c-0.69,0.03-1.32,0.26-1.88,0.68c-0.26,0.19-0.57,0.32-0.85,0.48
		c-0.09,0.05-0.2,0.12-0.23,0.2c-0.18,0.54-0.36,1.08-0.39,1.65c-0.05,0.84,0.17,1.63,0.53,2.38c0.27,0.56,0.69,0.96,1.25,1.22
		C73.69,64.35,74.32,64.53,74.99,64.44z"/>
	<path d="M95.84,57.78c-0.24,0.06-0.39-0.01-0.49-0.13c-0.43-0.47-1.01-0.6-1.59-0.72c-1-0.22-1.83,0.24-2.6,0.77
		c-0.72,0.5-1.2,1.23-1.33,2.1c-0.2,1.33,0.08,2.56,1.12,3.51c0.61,0.57,1.36,0.64,2.14,0.53c0.17-0.02,0.34-0.04,0.5-0.06
		c0.65-0.08,1.17-0.37,1.53-0.92c0.22-0.33,0.39-0.69,0.46-1.09c-0.41-0.09-0.82-0.16-1.21-0.27c-0.36-0.1-0.67-0.31-0.91-0.69
		c0.77-0.15,1.5-0.32,2.23-0.42c0.56-0.08,0.92,0.28,0.92,0.85c0,1.11-0.34,2.09-1.11,2.91c-0.47,0.51-1.08,0.72-1.74,0.8
		c-0.42,0.05-0.84,0.1-1.26,0.13c-0.7,0.06-1.31-0.17-1.86-0.6c-1.15-0.88-1.7-2.09-1.84-3.49c-0.08-0.84,0-1.67,0.36-2.45
		c0.75-1.59,1.97-2.53,3.73-2.76c0.73-0.1,1.4,0.02,2,0.45c0.28,0.2,0.55,0.46,0.73,0.74C95.77,57.19,95.77,57.49,95.84,57.78z"/>
	<path d="M60.86,57.72c0.15-0.03,0.24-0.03,0.32-0.06c0.63-0.24,1.29-0.35,1.95-0.33c1.02,0.04,1.95,0.37,2.66,1.14
		c0.48,0.52,0.76,1.15,0.89,1.84c0.23,1.31,0.2,2.6-0.3,3.85c-0.33,0.81-0.88,1.38-1.71,1.67c-0.24,0.08-0.47,0.19-0.71,0.27
		c-0.37,0.12-0.74,0.18-1.14,0.1c-0.33-0.06-0.68-0.04-1.01-0.1c-0.27-0.05-0.58-0.1-0.59-0.49c0-0.05-0.05-0.11-0.09-0.16
		c-0.22-0.35-0.28-0.75-0.29-1.15c-0.03-1.73-0.06-3.46-0.07-5.2C60.77,58.65,60.83,58.19,60.86,57.72z M61.93,65.3
		c0.87-0.11,1.73-0.38,2.42-0.76c0.42-0.23,0.78-0.53,0.96-1c0.47-1.21,0.54-2.42,0.05-3.64c-0.17-0.43-0.45-0.78-0.87-0.98
		c-0.37-0.18-0.74-0.36-1.14-0.47c-0.73-0.19-1.48-0.33-2.22-0.49c-0.02,0-0.04,0.03-0.05,0.04C61.6,60.41,61.89,62.84,61.93,65.3z"
		/>
	<path d="M57.85,29.36c0.01-0.13,0.1-0.16,0.21-0.21c1.02-0.41,2.03-0.34,3.05,0.02c1.26,0.45,2.36,1.18,3.36,2.05
		c0.3,0.26,0.58,0.56,0.85,0.85c0.12,0.13,0.23,0.29,0.3,0.45c0.81,1.68,1.21,3.44,1.03,5.31c-0.04,0.47-0.15,0.93-0.22,1.4
		c0.16,0.05,0.35,0.08,0.5,0.18c0.37,0.24,0.49,0.64,0.44,1.05c-0.11,0.9-0.39,1.77-0.74,2.61c-0.19,0.47-0.53,0.83-0.89,1.18
		c-0.1,0.1-0.19,0.22-0.24,0.34c-0.6,1.71-1.59,3.18-2.82,4.49c-0.48,0.51-0.99,0.96-1.64,1.31c0.14,0.71,0.26,1.43,0.43,2.13
		c0.17,0.69,0.41,1.36,0.62,2.04c-0.02,0.02-0.04,0.03-0.06,0.05c-0.06-0.04-0.14-0.07-0.16-0.12c-0.36-0.91-0.73-1.82-0.81-2.81
		c-0.03-0.38-0.08-0.76-0.12-1.19c-0.78,0.4-1.52,0.81-2.28,1.02c-0.2-0.07-0.35-0.14-0.5-0.17c-0.99-0.2-1.97-0.4-2.91-0.76
		c-0.67-0.26-1.29-0.62-1.86-1.05c-0.1-0.07-0.19-0.14-0.35-0.25c0.02,0.14,0.02,0.23,0.04,0.31c0.16,0.78,0.35,1.56,0.47,2.35
		c0.15,1,0.01,2-0.12,3c-0.01,0.05-0.02,0.09-0.03,0.14c-0.19,0-0.19-0.08-0.18-0.23c0.05-0.59,0.08-1.18,0.12-1.77
		c0.06-1.04-0.17-2.04-0.32-3.06c-0.09-0.65-0.39-1.1-0.89-1.49c-0.67-0.52-1.23-1.17-1.78-1.81c-0.06-0.07-0.11-0.15-0.18-0.25
		c0.16-0.06,0.22,0.06,0.29,0.12c0.6,0.53,1.18,1.08,1.79,1.59c0.46,0.39,0.96,0.74,1.44,1.1c0.86,0.64,1.84,1,2.86,1.31
		c0.53,0.16,1.06,0.34,1.59,0.51c0.16,0.05,0.31,0.13,0.47,0.2c0.87-0.49,1.76-0.95,2.62-1.47c0.83-0.5,1.45-1.25,2.03-2.01
		c0.9-1.17,1.63-2.43,2.03-3.87c0.18-0.65,0.26-1.3,0.28-1.97c0.03-0.9,0.19-1.78,0.38-2.65c0.15-0.71,0.28-1.43,0.3-2.15
		c0.01-0.71-0.13-1.42-0.21-2.13c-0.03-0.26-0.1-0.52-0.13-0.79c-0.06-0.79-0.39-1.48-0.92-2.05c-1.19-1.28-2.58-2.27-4.25-2.83
		c-0.94-0.32-1.88-0.26-2.83-0.06C57.9,29.3,57.87,29.33,57.85,29.36L57.85,29.36z M66.31,40.27C66,40.68,66.04,41.14,66,41.58
		c-0.05,0.54-0.09,1.08-0.15,1.62c-0.03,0.25-0.09,0.49-0.14,0.74c0.32-0.32,0.59-0.68,0.73-1.1c0.21-0.63,0.39-1.27,0.57-1.91
		c0.08-0.29,0.12-0.59,0.02-0.9c-0.11-0.33-0.31-0.53-0.69-0.56c-0.06,0.29-0.12,0.56-0.19,0.86C66.23,40.3,66.27,40.29,66.31,40.27
		z"/>
	<path d="M46.39,59.62c-0.1-0.07-0.17-0.12-0.24-0.16c-0.21-0.15-0.4-0.32-0.62-0.44c-0.77-0.42-1.31-0.35-1.93,0.28
		c-0.23,0.23-0.42,0.51-0.58,0.79c-0.21,0.37-0.14,0.57,0.2,0.8c0.24,0.16,0.5,0.31,0.76,0.43c0.45,0.21,0.92,0.38,1.36,0.6
		c0.34,0.16,0.67,0.33,0.98,0.55c0.57,0.4,0.83,0.99,0.9,1.67c0.06,0.52,0.02,1.05-0.1,1.55c-0.31,1.23-1.33,2.01-2.69,1.68
		c-0.78-0.19-1.38-0.63-1.86-1.25c-0.09-0.11-0.16-0.24-0.22-0.37c-0.23-0.5-0.15-0.88,0.27-1.23c0.07-0.06,0.19-0.11,0.26-0.09
		c0.06,0.02,0.08,0.15,0.12,0.23c0,0.01,0,0.02,0,0.04c0,0.49,0.13,0.91,0.54,1.21c0.49,0.35,1.04,0.57,1.64,0.44
		c0.52-0.11,0.86-0.49,1.01-1c0.14-0.46,0.17-0.93,0.06-1.4c-0.07-0.28-0.2-0.52-0.47-0.66c-0.62-0.3-1.24-0.6-1.86-0.91
		c-0.49-0.24-0.97-0.5-1.36-0.89c-0.6-0.6-0.68-1.2-0.29-1.95c0.25-0.48,0.59-0.89,1.01-1.23c0.51-0.41,1.1-0.61,1.76-0.47
		C45.78,57.99,46.43,58.84,46.39,59.62z"/>
	<path d="M53.62,57.83c0.05,0.44,0.09,0.88,0.15,1.32c0.14,1.19,0.26,2.38,0.45,3.56c0.15,0.94,0.52,1.82,1.26,2.48
		c0.14,0.12,0.28,0.24,0.44,0.32c0.49,0.24,0.96,0.25,1.43-0.1c0.75-0.56,1.15-1.31,1.21-2.22c0.04-0.7,0.04-1.41,0.01-2.11
		c-0.04-0.86-0.13-1.71-0.19-2.57c-0.02-0.26,0-0.53,0-0.8c0-0.06,0.01-0.13,0.04-0.17c0.06-0.08,0.13-0.18,0.22-0.2
		c0.06-0.01,0.17,0.09,0.21,0.16c0.22,0.37,0.33,0.78,0.38,1.2c0.18,1.34,0.2,2.68,0.14,4.03c-0.02,0.46-0.05,0.92-0.14,1.37
		c-0.19,0.88-0.66,1.61-1.39,2.14c-0.82,0.6-1.7,0.59-2.52-0.01c-1.2-0.87-1.81-2.09-2.04-3.52c-0.21-1.31-0.19-2.63,0-3.94
		c0.05-0.32,0.16-0.63,0.24-0.94C53.55,57.83,53.58,57.83,53.62,57.83z"/>
	<path d="M84.39,56.84c-1.29,0.07-2.54,0.1-3.78-0.47c0.31-0.18,0.6-0.3,0.89-0.36c0.83-0.18,1.65-0.34,2.48-0.5
		c0.66-0.12,1.33-0.23,2-0.33c0.42-0.06,0.84-0.09,1.26,0.03c0.24,0.07,0.31,0.16,0.23,0.4c-0.05,0.15-0.16,0.29-0.28,0.4
		c-0.45,0.43-1.03,0.56-1.63,0.64c-0.34,0.05-0.69,0.11-1.02,0.16c0.17,0.83,0.36,1.63,0.49,2.44c0.22,1.36,0.43,2.72,0.61,4.08
		c0.06,0.44-0.04,0.89-0.26,1.3c-0.13,0.24-0.24,0.25-0.41,0.04c-0.28-0.35-0.42-0.76-0.47-1.2c-0.09-0.84-0.19-1.68-0.24-2.52
		c-0.05-0.69-0.06-1.38-0.04-2.07c0.02-0.59,0.11-1.18,0.17-1.77C84.4,57.03,84.39,56.94,84.39,56.84z"/>
	<path d="M50.16,58.86c0.48,1.13,0.7,2.29,0.69,3.49c-0.01,0.93,0.02,1.87,0.02,2.8c0,0.39,0,0.77-0.01,1.16
		c-0.01,0.18-0.06,0.36-0.27,0.47c-0.35-0.2-0.58-0.48-0.63-0.9c-0.05-0.49-0.12-0.98-0.14-1.48c-0.05-1.1-0.11-2.2-0.12-3.3
		c-0.01-0.71,0.06-1.42,0.09-2.18c-0.18,0-0.37-0.02-0.56-0.01c-0.59,0.03-1.19,0-1.77-0.14c-0.18-0.04-0.35-0.14-0.52-0.21
		c0-0.03,0-0.06,0-0.09c0.18-0.07,0.35-0.17,0.53-0.21c0.76-0.15,1.52-0.3,2.28-0.43c0.48-0.08,0.96-0.14,1.43-0.2
		c0.2-0.02,0.41-0.03,0.62-0.04c0.23-0.01,0.38,0.14,0.51,0.31c0.11,0.14,0.01,0.29-0.07,0.4c-0.16,0.2-0.37,0.35-0.64,0.38
		C51.15,58.74,50.67,58.8,50.16,58.86z"/>
	<path d="M98.45,21.67c-0.02,0.09-0.03,0.18-0.05,0.3c-0.2-0.08-0.31-0.25-0.42-0.41c-0.68-0.93-1.54-1.67-2.45-2.36
		c-0.87-0.65-1.83-1.13-2.88-1.43c-0.32-0.09-0.64-0.19-1.03-0.31c0.24,0.37,0.52,0.66,0.47,1.11c-0.29-0.05-0.59-0.12-0.89-0.16
		c-0.57-0.08-1.15-0.16-1.73-0.19c-0.53-0.03-1.07-0.01-1.6-0.01c-0.08,0-0.18-0.01-0.25,0.03c-0.64,0.3-1.35,0.37-2.03,0.53
		c-1.87,0.46-3.65,1.13-5.37,1.98c-0.06,0.03-0.12,0.07-0.22,0.13c0.96-0.06,1.86-0.1,2.75,0.02c0,0.03,0,0.06,0,0.09
		c-0.35,0.02-0.69,0.04-1.04,0.06c-0.15,0-0.27,0.05-0.39,0.14c-0.74,0.53-1.5,1.03-2.22,1.58c-1.54,1.18-2.9,2.53-3.99,4.14
		c-0.03,0.04-0.04,0.08-0.11,0.2c0.47-0.31,0.85-0.58,1.25-0.83c0.39-0.25,0.8-0.47,1.22-0.68c-0.06,0.21-0.24,0.29-0.39,0.38
		c-0.16,0.1-0.23,0.23-0.23,0.42c0.01,0.74-0.17,1.44-0.45,2.12c-0.22,0.53-0.45,1.04-0.68,1.57c-0.04,0.09-0.07,0.18-0.11,0.27
		c-0.05,0.11-0.11,0.22-0.2,0.31c0.4-1.44,1.1-2.79,1.23-4.36c-0.63,0.39-1.23,0.75-1.82,1.11c-0.02-0.02-0.04-0.04-0.06-0.05
		c0.12-0.28,0.22-0.57,0.37-0.84c0.44-0.8,1.02-1.5,1.65-2.16c0.97-1.01,2.02-1.92,3.21-2.66c0.33-0.2,0.67-0.38,1.01-0.58
		c-0.22-0.07-1.4,0.02-1.9,0.09c0.22-0.16,0.44-0.32,0.67-0.47c1.68-1.02,3.48-1.74,5.38-2.22c0.76-0.19,1.53-0.38,2.3-0.53
		c0.53-0.11,1.08-0.16,1.62-0.07c0.15,0.03,0.31,0.01,0.47,0.01c0.75,0.01,1.5,0.06,2.2,0.37c0.04,0.02,0.09,0.03,0.2,0.06
		c-0.22-0.38-0.41-0.69-0.6-1.02c0.47,0.09,0.92,0.17,1.37,0.26c1.37,0.26,2.54,0.93,3.58,1.83c0.5,0.43,0.98,0.9,1.45,1.37
		c0.18,0.19,0.29,0.44,0.45,0.66C98.27,21.53,98.37,21.6,98.45,21.67L98.45,21.67z"/>
	<path d="M56.35,22.23c0.1-0.07,0.19-0.14,0.3-0.2c1.21-0.65,2.47-0.8,3.79-0.35c0.93,0.32,1.79,0.8,2.64,1.29
		c1.02,0.59,1.98,1.26,2.83,2.08c1.25,1.21,2.15,2.65,2.64,4.33c0.45,1.51,0.71,3.06,0.89,4.63c0.13,1.15,0.25,2.31,0.34,3.46
		c0.06,0.7,0.05,1.4,0.08,2.1c0.04,1.02,0.09,2.03,0.14,3.04c0.03,0.65,0.06,1.31,0.1,1.96c0.06,0.88,0.13,1.76,0.19,2.64
		c0.04,0.54,0.06,1.09,0.1,1.63c0.04,0.69,0.09,1.38,0.13,2.06c0.04,0.66,0.06,1.33,0.04,1.99c-0.06-0.56-0.14-1.11-0.19-1.67
		c-0.11-1.24-0.2-2.48-0.3-3.72c-0.07-0.92-0.15-1.83-0.21-2.75c-0.08-1.27-0.16-2.53-0.22-3.8c-0.06-1.15-0.07-2.3-0.15-3.45
		c-0.19-2.62-0.45-5.23-1.15-7.78c-0.47-1.72-1.34-3.21-2.63-4.45c-0.85-0.81-1.8-1.48-2.81-2.05c-0.67-0.38-1.37-0.73-2.06-1.07
		c-0.59-0.29-1.24-0.44-1.89-0.45c-0.42-0.01-0.84,0.07-1.25,0.16c-0.39,0.08-0.76,0.23-1.14,0.35c-0.05,0.02-0.11,0.03-0.16,0.04
		C56.37,22.26,56.36,22.24,56.35,22.23z"/>
	<path d="M56.13,22.54c-0.5-0.05-0.98-0.09-1.46-0.13c-0.78-0.07-1.55,0.02-2.3,0.2c-1.74,0.4-3.26,1.22-4.54,2.46
		c-0.68,0.66-1.22,1.44-1.73,2.24c-1.22,1.92-1.97,4.01-2.31,6.26c-0.23,1.5-0.29,3.02-0.18,4.53c0.09,1.14,0.28,2.28,0.45,3.42
		c0.33,2.17,0.92,4.28,1.36,6.43c0.28,1.34,0.48,2.69,0.7,4.04c0.15,0.93,0.28,1.87,0.41,2.8c0.02,0.14,0.03,0.28,0.05,0.42
		c-0.21,0.01-0.21-0.11-0.23-0.22c-0.14-0.92-0.3-1.84-0.43-2.76c-0.31-2.22-0.73-4.41-1.27-6.59c-0.47-1.93-0.82-3.88-1.09-5.85
		c-0.18-1.26-0.25-2.53-0.21-3.8c0.08-3.14,0.82-6.09,2.51-8.76c0.58-0.92,1.22-1.81,2.03-2.55c1.29-1.18,2.8-1.94,4.51-2.3
		c0.47-0.1,0.95-0.17,1.43-0.19c0.76-0.03,1.52,0.05,2.25,0.31C56.09,22.49,56.11,22.52,56.13,22.54z"/>
	<path d="M57.84,29.35c0.02,0.03,0.04,0.06,0.08,0.13c-0.07-0.02-0.11-0.02-0.14-0.03c-1.04-0.63-2.12-0.57-3.22-0.21
		c-2.27,0.75-3.82,2.27-4.75,4.44c-0.32,0.74-0.43,1.53-0.54,2.33c-0.2,1.49-0.2,3-0.14,4.5c0.01,0.15,0.07,0.3,0.11,0.45
		c0.04,0.12,0.09,0.24,0.11,0.38c-0.16-0.15-0.33-0.28-0.43-0.49c-0.14-0.32-0.42-0.52-0.76-0.72c0.01,0.11,0.02,0.18,0.04,0.26
		c-0.02-0.01-0.05-0.01-0.06-0.02c-0.12-0.15-0.23-0.32-0.35-0.46c-0.49-0.58-1.1-0.76-1.78-0.44c-0.24,0.12-0.37,0.3-0.39,0.56
		c-0.05,0.48-0.02,0.95,0.14,1.4c0.44,1.29,1.1,2.45,2.03,3.46c0.34,0.37,0.74,0.66,1.22,0.84c0.39,0.15,0.39,0.15,0.66-0.16
		c0.04,0.36-0.14,0.54-0.48,0.46c-0.53-0.13-0.98-0.42-1.37-0.79c-0.68-0.64-1.19-1.4-1.61-2.23c-0.2-0.39-0.39-0.78-0.56-1.18
		c-0.22-0.52-0.29-1.07-0.27-1.63c0.02-0.66,0.29-1,1.09-1.12c0.62-0.1,1.08,0.21,1.42,0.7c0.11,0.15,0.21,0.26,0.4,0.32
		c0.2,0.06,0.38,0.19,0.59,0.3c-0.01-0.4-0.04-0.79-0.04-1.18c-0.02-1.46,0.07-2.9,0.34-4.34c0.27-1.42,0.94-2.64,1.9-3.7
		c1.1-1.21,2.45-2,4.05-2.34C56.11,28.58,57.04,28.68,57.84,29.35C57.85,29.36,57.84,29.35,57.84,29.35z"/>
	<path d="M69.09,65.84c-0.45-0.24-0.71-0.59-0.76-1.06c-0.06-0.61-0.11-1.23-0.12-1.85c-0.03-1.16-0.02-2.33-0.03-3.49
		c0-0.76,0-1.52,0-2.28c0.02-0.01,0.05-0.01,0.07-0.02c0.04,0.05,0.09,0.09,0.11,0.14c0.32,0.62,0.44,1.3,0.56,1.98
		c0.17,0.97,0.28,1.94,0.32,2.92c0.04,0.98,0.08,1.96,0.12,2.94C69.36,65.37,69.31,65.62,69.09,65.84z"/>
	<path d="M98.46,21.67c-0.01-0.12-0.05-0.24-0.03-0.35c0.08-0.5,0.16-1,0.26-1.5c0.02-0.08,0.09-0.2,0.14-0.21
		c0.07-0.01,0.19,0.07,0.22,0.14c0.21,0.46,0.4,0.93,0.6,1.4c0.2,0.47,0.17,0.97,0.17,1.48c0.99,0.43,1.65,1.19,2.18,2.08
		c0.7,1.19,1.35,2.41,1.81,3.72c0.39,1.1,0.64,2.23,0.8,3.39c0.04,0.32,0.09,0.65,0.13,0.97c0.05,0.39,0,0.76-0.18,1.17
		c-0.46-0.77-0.73-1.63-1.36-2.33c-0.07,0.96-0.1,1.87-0.41,2.74c-0.31,0.87-0.8,1.64-1.39,2.34c0.02-0.38,0.23-0.69,0.41-0.99
		c0.69-1.13,1.03-2.37,1.2-3.67c0.03-0.23,0.07-0.47,0.1-0.72c0.51,0.43,0.91,0.93,1.18,1.54c0.02-0.01,0.05-0.02,0.07-0.03
		c-0.04-0.31-0.07-0.62-0.11-0.94c-0.21-1.47-0.51-2.91-1.12-4.27c-0.57-1.27-1.15-2.54-2.01-3.64c-0.33-0.43-0.76-0.77-1.16-1.15
		c-0.06-0.06-0.16-0.07-0.29-0.12c-0.13-0.84-0.31-1.71-0.75-2.57C98.75,20.69,98.6,21.17,98.46,21.67
		C98.45,21.67,98.46,21.67,98.46,21.67z"/>
	<path d="M51.03,38.23c-0.12-0.14-0.21-0.25-0.33-0.39c0.12,0.01,0.21,0.01,0.31,0.01c-0.01-0.09-0.02-0.16-0.02-0.23
		c0.06,0.01,0.11,0.01,0.18,0.02c-0.02-0.07-0.04-0.12-0.05-0.16c0.1,0,0.3,0.02,0.31,0c0.05-0.21,0.2,0.06,0.26-0.09
		c-0.01-0.03-0.04-0.08-0.07-0.13c0.02-0.01,0.03-0.03,0.05-0.02c0.11,0.02,0.2,0.23,0.31,0.05c0.09-0.15,0.21,0.01,0.31-0.08
		c0.08-0.07,0.35-0.1,0.41-0.1c0.1,0.01,0.19,0.03,0.29,0.02c1.22-0.12,2.18,0.41,2.72,1.51c0.03,0.07,0.07,0.14,0.08,0.23
		c-0.36-0.32-0.56-0.8-1.07-1.02c0.28,0.94,0.29,1.78-0.57,2.47c0.21,0.01,0.38,0.02,0.63,0.03c-0.12,0.07-0.18,0.11-0.25,0.14
		c-0.61,0.24-1.22,0.17-1.79-0.11c-0.45-0.22-0.84-0.52-1.19-0.89c0.59,0.23,1.09,0.7,1.83,0.81c-0.45-0.48-0.59-0.99-0.52-1.55
		c0.07-0.58,0.37-1.01,0.93-1.27c-0.52-0.16-0.99-0.02-1.46,0.11C51.84,37.72,51.35,37.84,51.03,38.23z M53.12,38.43
		c0.11,0.18,0.24,0.21,0.38,0.1c0.16-0.12,0.2-0.39,0.09-0.66C53.3,37.93,53.26,38.21,53.12,38.43z"/>
	<path d="M64.68,38.42c-0.07-0.1-0.17-0.2-0.22-0.31c-0.18-0.37-0.5-0.56-0.89-0.61c-0.44-0.06-0.89-0.15-1.34,0.03
		c0.49,0.18,0.6,0.59,0.64,1.05c0.04,0.47-0.05,0.92-0.23,1.35c-0.11,0.27-0.28,0.52-0.6,0.52c-0.32,0-0.57-0.19-0.7-0.49
		c-0.04-0.09-0.08-0.18-0.1-0.27c-0.12-0.71-0.1-1.4,0.4-2.05c-0.48,0.1-0.8,0.36-1.08,0.67c-0.28,0.3-0.52,0.63-0.82,0.93
		c0.05-0.12,0.1-0.24,0.15-0.35c0.59-1.14,1.53-1.71,2.8-1.75c0.19-0.01,0.38-0.06,0.59-0.09c0.01,0.01,0.04,0.06,0.08,0.1
		c0.1,0.1,0.21-0.17,0.34,0.02c0.04,0.06,0.23,0.01,0.38,0.01c0,0.02-0.01,0.07-0.02,0.15c0.09-0.01,0.17-0.02,0.24-0.03
		c0.07-0.01,0.14-0.04,0.26-0.08c-0.08,0.11-0.12,0.18-0.19,0.28c0.13,0.01,0.24,0.01,0.38,0.02c-0.05,0.07-0.1,0.13-0.15,0.2
		c0.12,0.01,0.24,0.03,0.36,0.04c-0.08,0.11-0.16,0.19-0.19,0.29c-0.03,0.11-0.01,0.23-0.01,0.34C64.73,38.4,64.7,38.41,64.68,38.42
		z M61.84,37.89c-0.22,0.1-0.28,0.32-0.35,0.52c-0.03,0.1-0.02,0.21,0.11,0.27c0.14,0.07,0.23,0,0.31-0.1
		C62.06,38.4,62.03,38.15,61.84,37.89z"/>
	<path d="M97.54,34.09c-0.25,0.11-0.4,0.05-0.53-0.04c-0.59-0.4-1.28-0.5-1.97-0.56c-0.72-0.07-1.42,0.05-2.11,0.25
		c-0.41,0.12-0.85,0.18-1.27,0.28c-0.19,0.04-0.36,0.13-0.55,0.18c-0.36,0.11-0.72,0.21-1.08,0.3c-0.14,0.03-0.29,0.02-0.46,0.03
		c0.03-0.05,0.04-0.09,0.06-0.1c1.23-0.47,2.43-1.02,3.72-1.31c1.27-0.28,2.5-0.16,3.64,0.54C97.18,33.75,97.33,33.91,97.54,34.09z"
		/>
	<path d="M65.86,35.52c-0.23-0.03-0.46-0.05-0.69-0.09c-0.23-0.04-0.45-0.09-0.68-0.13c-0.59-0.08-1.16,0-1.71,0.19
		c-0.78,0.26-1.55,0.54-2.33,0.8c-0.31,0.1-0.62,0.18-0.91,0.26c-0.1-0.1,0.17-0.22-0.16-0.26c0.43-0.22,0.78-0.42,1.15-0.58
		c0.84-0.38,1.68-0.73,2.61-0.86c0.78-0.1,1.55-0.07,2.26,0.3c0.16,0.08,0.32,0.19,0.48,0.29C65.87,35.46,65.86,35.49,65.86,35.52z"
		/>
	<path d="M56.3,36.21c-0.02,0.1-0.03,0.17-0.04,0.25c-0.07,0-0.16,0.01-0.23,0c-0.46-0.1-0.92-0.21-1.38-0.3
		c-0.72-0.15-1.46-0.24-2.2-0.18c-0.61,0.04-1.19,0.2-1.74,0.47c-0.17,0.08-0.34,0.14-0.53,0.18c0.28-0.3,0.56-0.58,0.93-0.74
		c0.09-0.04,0.17-0.09,0.25-0.14c0.32-0.19,0.65-0.31,1.03-0.29c0.37,0.02,0.75,0,1.12,0.01C54.49,35.48,55.41,35.78,56.3,36.21z"/>
	<path d="M90.22,29.3c-0.03,0.04-0.05,0.08-0.08,0.12c0.2-0.86,0.62-1.62,0.92-2.44c-1.07,0.78-2.17,1.5-3.53,1.74
		c-0.04-0.72-0.09-1.43-0.13-2.14c-0.02-0.01-0.04-0.01-0.06-0.02c-0.21,0.37-0.42,0.74-0.63,1.11c-0.01,0-0.02-0.01-0.04-0.01
		c0.03-0.12,0.05-0.25,0.11-0.37c0.24-0.51,0.49-1.02,0.74-1.53c0.42-0.25,0.5-0.8,0.95-1.03c-0.08,0.14-0.16,0.28-0.24,0.42
		c-0.18,0.29-0.37,0.57-0.54,0.86c-0.06,0.11-0.11,0.25-0.11,0.37c0.01,0.68,0.04,1.35,0.07,2.03c0,0.03,0.02,0.06,0.04,0.12
		c0.55-0.18,1.06-0.43,1.54-0.73c0.74-0.47,1.45-0.96,2.18-1.44c0.15-0.1,0.3-0.17,0.46-0.26c0.02,0.03,0.04,0.05,0.06,0.08
		c-0.16,0.15-0.31,0.32-0.49,0.45c-0.14,0.11-0.2,0.24-0.25,0.41c-0.15,0.46-0.33,0.91-0.52,1.35C90.53,28.7,90.36,29,90.22,29.3
		C90.21,29.3,90.22,29.3,90.22,29.3z"/>
	<path d="M90.21,29.3c0.06-0.03,0.14-0.05,0.19-0.1c0.46-0.41,1.02-0.65,1.57-0.89c0.26-0.11,0.51-0.22,0.77-0.32
		c0.79-0.32,1.43-0.86,2.05-1.41c0.26-0.23,0.53-0.44,0.82-0.64c-0.01,0.19-0.12,0.31-0.24,0.42c-0.15,0.14-0.22,0.3-0.25,0.51
		c-0.11,0.69-0.41,1.31-0.67,1.95c-0.02,0.04-0.06,0.07-0.14,0.17c0.17-0.79,0.49-1.46,0.65-2.19c-0.14,0.13-0.29,0.25-0.42,0.38
		c-0.53,0.55-1.17,0.93-1.88,1.2c-0.77,0.28-1.56,0.53-2.28,0.92C90.34,29.32,90.28,29.3,90.21,29.3
		C90.22,29.3,90.21,29.3,90.21,29.3z"/>
	<path d="M85.67,27.67c-0.02,0.09-0.05,0.18-0.08,0.33c-0.26-0.38-0.44-0.75-0.54-1.21c-0.08,0.09-0.13,0.14-0.18,0.21
		c-0.2,0.29-0.36,0.61-0.59,0.87c-0.23,0.27-0.4,0.55-0.46,0.9c-0.02,0.11-0.13,0.2-0.21,0.32c-0.26-0.17-0.25-0.42-0.25-0.62
		c-0.02-0.88,0.04-1.76,0.33-2.61c0.01-0.02,0.03-0.04,0.08-0.1c-0.1,0.84-0.16,1.64-0.08,2.46c0.08-0.18,0.16-0.37,0.26-0.59
		c0.04,0.1,0.06,0.15,0.1,0.24c0.69-0.99,1.24-2.04,1.87-3.05c-0.17,0.65-0.53,1.21-0.82,1.84c0.13,0.3,0.28,0.63,0.43,0.96
		C85.55,27.64,85.63,27.65,85.67,27.67L85.67,27.67z"/>
	<path d="M60.94,45.58c-0.3,0.61-0.86,0.8-1.44,0.94c-0.52,0.13-1.06,0.09-1.59,0c-0.55-0.09-1.09-0.19-1.63-0.3
		c-0.24-0.05-0.47-0.15-0.7-0.23c0.01-0.03,0.01-0.06,0.02-0.09c0.51,0.08,1.01,0.15,1.52,0.22c0.48,0.07,0.96,0.14,1.44,0.19
		c0.76,0.07,1.46-0.13,2.09-0.56C60.74,45.7,60.84,45.64,60.94,45.58z"/>
	<path d="M57.85,29.18c-0.07-2.08-0.58-4-1.16-5.9C57.5,24.61,58.27,28.41,57.85,29.18z"/>
	<path d="M76.55,29.74c0.05-0.1,0.09-0.2,0.14-0.29c0.16,0.68,0.01,1.34,0.05,1.99c0.04,0.65,0.12,1.29,0.17,1.94
		c-0.18-0.4-0.27-0.82-0.34-1.25c-0.11-0.65-0.07-1.3-0.01-1.95c0.01-0.13,0.02-0.27,0.03-0.4c0-0.01,0-0.03-0.01-0.03
		C76.57,29.73,76.56,29.74,76.55,29.74C76.54,29.74,76.55,29.74,76.55,29.74z"/>
	<path d="M94.66,28.72c0.98-0.91,1.71-2.04,2.56-3.06C96.59,26.86,95.86,27.99,94.66,28.72z"/>
	<path d="M63.17,39.92c-0.09,0.46-0.38,0.73-0.8,0.84c-0.55,0.15-1.1,0.12-1.64-0.07c-0.09-0.03-0.17-0.09-0.3-0.17
		c0.37,0.02,0.66,0.03,0.96,0.05c0.58,0.04,1.1-0.1,1.54-0.5C63.01,40.03,63.09,39.98,63.17,39.92z"/>
	<path d="M48.76,43.1c-0.39,0-0.63-0.19-0.85-0.42c-0.03-0.03-0.05-0.05-0.07-0.08c-0.3-0.65-0.6-1.3-0.89-1.96
		c0.34,0.35,0.65,0.72,0.8,1.18c0.14,0.45,0.37,0.81,0.77,1.06C48.6,42.92,48.66,43,48.76,43.1z"/>
	<path d="M79.83,28.97c0.27,0.49,0.58,0.94,0.66,1.49c-0.22-0.39-0.44-0.79-0.68-1.22c-0.21,0.49-0.52,0.88-0.58,1.44
		c-0.25-0.17-0.48-0.32-0.71-0.48c0.01-0.02,0.02-0.04,0.03-0.06c0.2,0.08,0.39,0.16,0.6,0.24C79.32,29.88,79.36,29.31,79.83,28.97z
		"/>
	<path d="M80.63,30.06c0.04-0.31,0.05-0.57,0.1-0.83c0.18-0.88,0.52-1.7,0.88-2.52c0.02-0.05,0.06-0.09,0.15-0.11
		C81.38,27.73,81.01,28.87,80.63,30.06z"/>
	<path d="M82.34,27.65c-0.07-0.03-0.14-0.06-0.23-0.1c-0.21,0.57-0.42,1.15-0.62,1.69c-0.08-0.46,0.67-2.59,1.12-2.97
		c-0.11,0.28-0.2,0.56-0.33,0.83C82.19,27.3,82.19,27.48,82.34,27.65L82.34,27.65z"/>
	<path d="M58.49,42.39c0.12-0.5,0.29-0.91,0.05-1.34C59.02,41.28,59,41.9,58.49,42.39z"/>
	<path d="M53.57,44.61c0.1,0.43,0.2,0.86,0.3,1.32C53.46,45.49,53.35,44.97,53.57,44.61z"/>
	<path d="M85.67,27.68c0.06-0.31,0.16-0.6,0.37-0.87c0.02,0.19,0.04,0.35,0.06,0.5l0.01-0.01c-0.06,0.01-0.13,0-0.16,0.03
		C85.85,27.44,85.76,27.56,85.67,27.68C85.67,27.67,85.67,27.68,85.67,27.68z"/>
	<path d="M77.28,32.68c-0.06,0.25-0.11,0.51-0.18,0.76c-0.04,0.14-0.1,0.28-0.18,0.41C76.96,33.43,77.09,33.05,77.28,32.68
		C77.29,32.69,77.28,32.68,77.28,32.68z"/>
	<path d="M82.33,27.66c0.22,0.31,0.44,0.61,0.63,0.94c-0.03,0.02-0.05,0.03-0.08,0.05c-0.17-0.27-0.34-0.53-0.51-0.8
		C82.35,27.79,82.35,27.71,82.33,27.66C82.34,27.65,82.33,27.66,82.33,27.66z"/>
	<path d="M86.1,27.31c0.03,0.02,0.07,0.02,0.09,0.05c0.15,0.25,0.29,0.51,0.4,0.78C86.36,27.9,86.2,27.62,86.1,27.31
		C86.11,27.3,86.1,27.31,86.1,27.31z"/>
	<path d="M58.7,47.54c-0.2,0.02-0.4,0.04-0.6,0.06c0-0.03,0-0.06-0.01-0.09c0.21-0.01,0.41-0.02,0.62-0.03
		C58.71,47.5,58.71,47.52,58.7,47.54z"/>
	<path d="M49.99,46.08c0.04,0.05,0.07,0.09,0.11,0.14c-0.02,0.02-0.05,0.04-0.07,0.06c-0.04-0.05-0.08-0.09-0.11-0.14
		C49.94,46.12,49.96,46.1,49.99,46.08z"/>
	<path d="M57.68,42.05c-0.06,0.04-0.09,0.07-0.12,0.09c-0.02-0.04-0.05-0.07-0.06-0.11c0-0.02,0.04-0.07,0.06-0.07
		C57.6,41.97,57.63,42.01,57.68,42.05z"/>
	<path d="M75.95,30.24c-0.04,0.03-0.08,0.06-0.12,0.09c-0.02-0.02-0.05-0.05-0.07-0.07c0.04-0.03,0.08-0.06,0.13-0.09
		C75.9,30.19,75.93,30.22,75.95,30.24z"/>
	<path d="M76.54,29.74c-0.08,0.04-0.17,0.09-0.25,0.13c-0.01-0.02-0.01-0.03-0.02-0.05C76.37,29.79,76.46,29.76,76.54,29.74
		C76.55,29.74,76.54,29.74,76.54,29.74z"/>
	<path class="st0" d="M83.99,47.9c-0.07-0.04-0.14-0.07-0.21-0.12c-1.58-1.09-2.68-2.52-3.1-4.41c-0.11-0.51-0.16-1.03-0.23-1.54
		c-0.11-0.83-0.21-1.66-0.33-2.48c-0.03-0.18-0.02-0.31,0.16-0.37c0.29,0.27,0.57,0.56,0.87,0.81c0.49,0.4,1.05,0.66,1.7,0.61
		c0.5-0.04,0.97-0.21,1.4-0.46c0.86-0.51,1.66-1.1,2.18-1.99c0.01-0.02,0.04-0.03,0.08-0.05c-0.08,0.64-0.41,1.2-0.46,1.83
		c0.58-0.86,0.92-1.79,0.77-2.86c0.85-0.45,1.78-0.35,2.67-0.42c0.11,0.43,0.2,0.88,0.35,1.31c0.12,0.34,0.28,0.67,0.46,0.98
		c0.61,1,1.56,1.41,2.69,1.44c0.58,0.01,1.1-0.26,1.59-0.55c0.8-0.46,1.41-1.1,1.81-1.93c0.34-0.7,0.65-1.41,0.72-2.21
		c0.17,0.03,0.33,0.06,0.51,0.09c-0.09,1.07-0.01,2.15-0.23,3.21c0.2,0.06,0.21-0.08,0.23-0.21c0.09-0.43,0.39-0.68,0.77-0.88
		c-0.05,0.17-0.1,0.33-0.15,0.5c0.02,0.01,0.04,0.02,0.06,0.03c0.09-0.15,0.16-0.31,0.26-0.45c0.24-0.32,0.46-0.65,0.74-0.94
		c0.16-0.17,0.4-0.28,0.62-0.36c0.36-0.13,0.7,0,0.85,0.35c0.11,0.24,0.17,0.51,0.19,0.77c0.05,1.01-0.22,1.97-0.62,2.89
		c-0.35,0.8-0.74,1.58-1.14,2.35c-0.16,0.3-0.41,0.57-0.64,0.83c-0.31,0.36-0.75,0.48-1.2,0.55c-0.16,0.03-0.31-0.03-0.42-0.17
		c-0.1-0.12-0.2-0.24-0.31-0.37c-0.77,1.27-1.58,2.48-2.82,3.36c0.09-0.34,0.19-0.69,0.25-1.04c0.05-0.3,0.08-0.6,0.09-0.9
		c0-0.24-0.06-0.29-0.29-0.33c-0.61-0.11-1.14,0-1.58,0.46c-0.34,0.36-0.68,0.73-1.04,1.07c-0.83,0.78-1.83,1.13-2.96,1.01
		c-0.39-0.04-0.78-0.16-1.17-0.26c-0.35-0.1-0.69-0.22-1.03-0.34c-0.35-0.13-0.66-0.31-0.86-0.63c-0.08-0.13-0.19-0.21-0.35-0.22
		c-0.13-0.01-0.26-0.06-0.39-0.09c-0.45-0.12-0.79,0.12-0.83,0.59c-0.04,0.43,0.04,0.85,0.24,1.23c0.05,0.1,0.1,0.21,0.15,0.31
		C84.02,47.87,84.01,47.89,83.99,47.9z M94.62,42.4c-0.01-0.03-0.02-0.07-0.03-0.1c-0.09-0.04-0.17-0.09-0.26-0.1
		c-0.66-0.08-1.32-0.18-1.98-0.23c-0.74-0.06-1.47,0.06-2.2,0.22c-0.52,0.12-1.05,0.21-1.51,0.5c-0.21,0.13-0.41,0.29-0.61,0.43
		c-0.54-0.41-1.05-0.53-1.64-0.49c-1.15,0.08-2.28,0.3-3.35,0.73c-0.03,0.01-0.06,0.03-0.1,0.05c-0.13,0.06-0.25,0.15-0.23,0.29
		c0.02,0.16,0.16,0.23,0.32,0.26c0.02,0,0.05,0,0.07,0c0.58,0.04,1.16,0.06,1.73-0.14c0.25-0.09,0.51-0.14,0.77-0.21
		c0.73-0.2,1.47-0.3,2.23-0.21c0.08,0.01,0.17,0.01,0.25-0.01c0.77-0.14,1.55-0.27,2.32-0.41c0.88-0.16,1.77-0.28,2.67-0.12
		c0.06,0.01,0.12,0.01,0.18,0c0.34-0.08,0.69-0.14,1.02-0.24C94.4,42.58,94.51,42.48,94.62,42.4z M85.31,44.25
		c0,0.03-0.01,0.07-0.01,0.1c0.05,0.03,0.1,0.07,0.15,0.08c0.35,0.07,0.71,0.18,1.06,0.2c0.49,0.02,0.99-0.02,1.48-0.08
		c0.9-0.1,1.78-0.33,2.61-0.71c0.23-0.1,0.4-0.25,0.46-0.53C89.23,44.15,87.32,44.48,85.31,44.25z M100.27,38.57
		c0.02,0,0.04,0,0.05,0c0.01-0.1,0.04-0.2,0.03-0.3c-0.01-0.07-0.08-0.15-0.14-0.2c-0.13-0.1-0.28-0.08-0.44,0.11
		c-0.14,0.16-0.27,0.35-0.33,0.55c-0.12,0.39-0.19,0.8-0.28,1.19c-0.07,0.3-0.09,0.62-0.29,0.87c-0.13-0.01-0.24-0.01-0.37-0.02
		c0.25,0.39,0.45,0.41,0.64,0.04c0.13-0.26,0.2-0.54,0.26-0.83c0.09-0.45,0.13-0.91,0.34-1.33c0.06-0.12,0.14-0.23,0.23-0.32
		c0.11-0.11,0.21-0.08,0.29,0.06C100.25,38.46,100.25,38.52,100.27,38.57z M86.81,41.43c-0.11-0.56-0.25-0.71-0.59-0.68
		C86.45,41.16,86.55,41.28,86.81,41.43z"/>
	<path class="st0" d="M90.9,35.14c-0.05,0.29-0.09,0.52-0.13,0.76c-0.01,0.05,0.01,0.1,0.07,0.16c0.03-0.06,0.06-0.12,0.08-0.18
		c0.15-0.64,0.59-0.95,1.2-1.05c0.5-0.08,0.99-0.04,1.46,0.17c0.37,0.16,0.61,0.42,0.7,0.82c0.05,0.24,0.14,0.48,0.25,0.7
		c0.13-0.52,0.12-1.03-0.22-1.47c-0.33-0.43-0.85-0.52-1.34-0.64c0.8-0.08,1.58,0,2.35,0.19c0.5,0.12,1,0.27,1.53,0.41
		c-0.09,1.38-0.52,2.65-1.52,3.67c-0.57,0.58-1.28,0.96-2.08,1.12c-0.65,0.14-1.24-0.09-1.8-0.4c-0.48-0.27-0.84-0.67-1.08-1.15
		c-0.28-0.56-0.52-1.15-0.76-1.73c-0.03-0.07-0.01-0.21,0.04-0.26C90.03,35.87,90.4,35.47,90.9,35.14z M93.7,36.24
		c0-0.43-0.01-0.72-0.22-0.96c-0.43-0.48-1.26-0.45-1.67,0.06c-0.36,0.46-0.48,1-0.37,1.57c0.06,0.3,0.21,0.54,0.45,0.72
		c0.44,0.33,0.87,0.3,1.27-0.08C93.58,37.16,93.68,36.64,93.7,36.24z"/>
	<path class="st0" d="M86.52,37.04c-0.53,1.35-1.56,2.16-2.78,2.78c-0.97,0.49-1.83,0.24-2.6-0.45c-0.5-0.45-0.88-0.99-1.25-1.55
		c-0.03-0.04-0.05-0.08-0.06-0.13c-0.15-0.6-0.3-1.19-0.45-1.81c1.07-0.67,2.16-1.2,3.49-1.2c-1.19,0.37-1.69,0.92-1.57,1.89
		c0.18-0.08,0.21-0.26,0.28-0.4c0.24-0.5,0.62-0.82,1.14-1c0.3-0.1,0.59-0.1,0.89,0c0.47,0.16,0.88,0.4,1.23,0.74
		c0.09,0.09,0.19,0.17,0.34,0.3c-0.05-0.51-0.42-0.71-0.71-1.04c0.11,0.04,0.18,0.04,0.23,0.07c0.68,0.43,1.25,0.98,1.66,1.68
		C86.38,36.97,86.46,36.99,86.52,37.04z M82.41,36.85c0.06,0.22,0.11,0.48,0.2,0.73c0.13,0.34,0.39,0.56,0.76,0.57
		c0.37,0.01,0.65-0.17,0.84-0.47c0.28-0.43,0.36-0.9,0.26-1.39c-0.11-0.57-0.61-0.93-1.19-0.87c-0.38,0.03-0.59,0.2-0.7,0.58
		C82.52,36.26,82.48,36.53,82.41,36.85z"/>
	<path class="st0" d="M80.05,41.75c-0.29-0.22-0.53-0.49-0.71-0.8c-0.53-0.91-0.87-1.89-1.08-2.91c-0.05-0.25-0.04-0.51-0.03-0.76
		c0.02-0.48,0.17-0.65,0.65-0.77c0.16,0.22,0.58,1.15,0.61,1.39c-0.15-0.13-0.26-0.31-0.47-0.24c-0.09,0.03-0.2,0.09-0.25,0.17
		c-0.1,0.17-0.04,0.65,0.1,0.88c0.04-0.24,0.08-0.47,0.12-0.68c0.29-0.07,0.39,0.18,0.63,0.22c0.17,1.16,0.34,2.32,0.52,3.47
		C80.11,41.73,80.08,41.74,80.05,41.75z"/>
	<path class="st0" d="M98.55,37.41c-0.41-0.11-0.55,0.26-0.82,0.45c0-0.58-0.01-1.12,0.01-1.65c0.01-0.2,0.1-0.39,0.16-0.62
		c0.7,0.15,1.38,0.3,2.06,0.44C99.29,36.29,98.9,36.82,98.55,37.41z"/>
	<path class="st0" d="M79.1,36.11c0.04,0.15,0.07,0.3,0.11,0.48C79.01,36.42,79.01,36.42,79.1,36.11z"/>
	<path class="st0" d="M80.02,38.56c0.07,0.1,0.11,0.16,0.16,0.23C80,38.82,80,38.73,80.02,38.56z"/>
	<path class="st0" d="M74.99,64.44c-0.67,0.08-1.3-0.09-1.9-0.37c-0.56-0.26-0.98-0.65-1.25-1.22c-0.36-0.75-0.58-1.54-0.53-2.38
		c0.03-0.58,0.22-1.12,0.39-1.65c0.03-0.08,0.14-0.15,0.23-0.2c0.28-0.16,0.59-0.29,0.85-0.48c0.57-0.42,1.2-0.64,1.88-0.68
		c0.52-0.03,1.03,0.12,1.51,0.34c0.27,0.13,0.54,0.28,0.78,0.45c0.35,0.25,0.58,0.61,0.73,1.02c0.49,1.29,0.4,2.56-0.14,3.81
		c-0.18,0.43-0.49,0.75-0.84,1.03c-0.3,0.24-0.66,0.28-1.02,0.33C75.45,64.47,75.22,64.44,74.99,64.44z"/>
	<path class="st0" d="M61.93,65.3c-0.04-2.46-0.33-4.89-0.85-7.3c0.01-0.01,0.04-0.04,0.05-0.04c0.74,0.16,1.49,0.3,2.22,0.49
		c0.39,0.1,0.77,0.29,1.14,0.47c0.42,0.2,0.7,0.56,0.87,0.98c0.5,1.22,0.43,2.43-0.05,3.64c-0.18,0.47-0.54,0.77-0.96,1
		C63.67,64.92,62.8,65.18,61.93,65.3z"/>
	<path class="st0" d="M66.31,40.27c-0.04,0.02-0.08,0.03-0.16,0.06c0.06-0.29,0.12-0.57,0.19-0.86c0.39,0.03,0.59,0.23,0.69,0.56
		c0.1,0.3,0.05,0.61-0.02,0.9c-0.17,0.64-0.36,1.28-0.57,1.91c-0.14,0.42-0.4,0.78-0.73,1.1c0.05-0.25,0.11-0.49,0.14-0.74
		c0.06-0.54,0.1-1.08,0.15-1.62C66.04,41.14,66,40.68,66.31,40.27z"/>
	<path class="st0" d="M53.12,38.43c0.14-0.22,0.18-0.5,0.48-0.56c0.11,0.27,0.07,0.55-0.09,0.66
		C53.36,38.64,53.24,38.61,53.12,38.43z"/>
	<path class="st0" d="M61.84,37.89c0.19,0.26,0.22,0.51,0.08,0.69c-0.08,0.1-0.17,0.17-0.31,0.1c-0.13-0.06-0.14-0.17-0.11-0.27
		C61.55,38.21,61.62,38,61.84,37.89z"/>
	<path d="M94.62,42.4c-0.12,0.07-0.22,0.18-0.35,0.21c-0.34,0.1-0.68,0.17-1.02,0.24c-0.06,0.01-0.12,0.01-0.18,0
		c-0.9-0.15-1.79-0.04-2.67,0.12c-0.77,0.14-1.55,0.28-2.32,0.41c-0.08,0.01-0.17,0.02-0.25,0.01c-0.76-0.08-1.5,0.02-2.23,0.21
		c-0.26,0.07-0.52,0.12-0.77,0.21c-0.57,0.2-1.15,0.17-1.73,0.14c-0.02,0-0.05,0-0.07,0c-0.15-0.03-0.29-0.1-0.32-0.26
		c-0.02-0.15,0.09-0.24,0.23-0.29c0.03-0.01,0.06-0.04,0.1-0.05c1.08-0.43,2.2-0.65,3.35-0.73c0.59-0.04,1.1,0.08,1.64,0.49
		c0.2-0.14,0.4-0.3,0.61-0.43c0.46-0.29,0.99-0.38,1.51-0.5c0.72-0.16,1.45-0.28,2.2-0.22c0.66,0.05,1.32,0.15,1.98,0.23
		c0.09,0.01,0.17,0.07,0.26,0.1C94.6,42.34,94.61,42.37,94.62,42.4z"/>
	<path d="M85.31,44.25c2.01,0.23,3.92-0.1,5.75-0.93c-0.06,0.28-0.23,0.43-0.46,0.53c-0.83,0.38-1.71,0.6-2.61,0.71
		c-0.49,0.06-0.99,0.09-1.48,0.08c-0.36-0.01-0.71-0.12-1.06-0.2c-0.05-0.01-0.1-0.05-0.15-0.08C85.3,44.32,85.31,44.28,85.31,44.25
		z"/>
	<path d="M100.27,38.57c-0.01-0.05-0.01-0.11-0.03-0.16c-0.07-0.14-0.17-0.17-0.29-0.06c-0.09,0.09-0.17,0.21-0.23,0.32
		c-0.22,0.41-0.25,0.88-0.34,1.33c-0.06,0.28-0.13,0.57-0.26,0.83c-0.18,0.37-0.39,0.36-0.64-0.04c0.13,0.01,0.24,0.01,0.37,0.02
		c0.2-0.25,0.23-0.57,0.29-0.87c0.09-0.4,0.16-0.81,0.28-1.19c0.06-0.2,0.2-0.39,0.33-0.55c0.16-0.19,0.3-0.21,0.44-0.11
		c0.06,0.05,0.13,0.12,0.14,0.2c0.02,0.1-0.01,0.2-0.03,0.3C100.3,38.58,100.28,38.58,100.27,38.57z"/>
	<path d="M86.81,41.43c-0.27-0.15-0.36-0.27-0.59-0.68C86.57,40.72,86.71,40.88,86.81,41.43z"/>
	<path d="M93.7,36.24c-0.02,0.4-0.12,0.91-0.53,1.31c-0.39,0.38-0.83,0.41-1.27,0.08c-0.24-0.18-0.4-0.42-0.45-0.72
		c-0.11-0.58,0-1.11,0.37-1.57c0.4-0.52,1.23-0.54,1.67-0.06C93.69,35.52,93.7,35.81,93.7,36.24z M92.96,35.29
		c-0.16,0.28-0.16,0.58-0.02,0.74c0.09,0.11,0.2,0.12,0.32,0.03c0.14-0.12,0.19-0.31,0.07-0.45C93.23,35.49,93.09,35.4,92.96,35.29z
		"/>
	<path d="M82.41,36.85c0.07-0.32,0.11-0.59,0.18-0.86c0.11-0.38,0.32-0.54,0.7-0.58c0.58-0.05,1.09,0.31,1.19,0.87
		c0.09,0.49,0.01,0.96-0.26,1.39c-0.2,0.3-0.48,0.49-0.84,0.47c-0.38-0.01-0.63-0.23-0.76-0.57C82.52,37.33,82.47,37.07,82.41,36.85
		z M83.79,35.87c-0.23,0.43-0.17,0.77,0.18,0.95c0.14-0.16,0.31-0.3,0.22-0.56C84.12,36.06,84.02,35.89,83.79,35.87z"/>
	<path class="st0" d="M92.96,35.29c0.13,0.11,0.27,0.2,0.37,0.32c0.11,0.14,0.07,0.33-0.07,0.45c-0.11,0.09-0.22,0.08-0.32-0.03
		C92.8,35.87,92.8,35.57,92.96,35.29z"/>
	<path class="st0" d="M83.79,35.87c0.23,0.03,0.33,0.2,0.4,0.4c0.1,0.26-0.08,0.4-0.22,0.56C83.62,36.64,83.56,36.3,83.79,35.87z"/>
</g>
</svg>
